<svg xmlns="http://www.w3.org/2000/svg" xmlns:xlink="http://www.w3.org/1999/xlink" viewBox="0 0 76.92 43.62"><defs><style>.cls-1{fill:url(#linear-gradient);}.cls-2{fill:#fff;}</style><linearGradient id="linear-gradient" x1="25.66" y1="12.83" x2="51.32" y2="12.83" gradientTransform="translate(-0.2 0.62) rotate(-0.92)" gradientUnits="userSpaceOnUse"><stop offset="0" stop-color="#ee4345"/><stop offset="0.04" stop-color="#ee4345"/><stop offset="0.17" stop-color="#ed435f"/><stop offset="0.4" stop-color="#eb4387"/><stop offset="0.52" stop-color="#ea4396"/><stop offset="0.62" stop-color="#ce4799"/><stop offset="0.85" stop-color="#974f9e"/><stop offset="0.96" stop-color="#8152a0"/><stop offset="1" stop-color="#8152a0"/></linearGradient></defs><g id="Layer_2" data-name="Layer 2"><g id="Layer_1-2" data-name="Layer 1"><rect class="cls-1" x="25.66" width="25.66" height="25.66" rx="12.83" transform="translate(0.21 -0.62) rotate(0.92)"/><path class="cls-2" d="M33.69,21a2.28,2.28,0,0,1-2.26-2.31l.09-11.85a2.29,2.29,0,0,1,2.3-2.27l9.49,0A2.28,2.28,0,0,1,45.55,7l0,1.71a2.29,2.29,0,0,1-2.29,2.27h-1.6l0,3.86,1.6,0a2.29,2.29,0,0,1,2.26,2.32V18.8a2.28,2.28,0,0,1-2.28,2.28ZM43.3,5.54l-9.49-.06a1.39,1.39,0,0,0-1.39,1.39l-.1,11.85a1.4,1.4,0,0,0,1.37,1.41l9.5.05a1.38,1.38,0,0,0,1.38-1.39V17.11a1.4,1.4,0,0,0-1.38-1.42H41.6v.88a1.78,1.78,0,0,1-1.78,1.76H38.55a1.78,1.78,0,0,1,0-3.55l2.13,0,0-3.87-2.14,0a1.77,1.77,0,0,1,0-3.54h1.27a1.77,1.77,0,0,1,1.74,1.79V10l1.59,0a1.4,1.4,0,0,0,1.4-1.39h0l0-1.7A1.39,1.39,0,0,0,43.3,5.54ZM38.57,15.66a.88.88,0,0,0,0,1.75h1.27a.87.87,0,0,0,.87-.87v-.88Zm.06-7.42a.88.88,0,0,0,0,1.76l2.13,0V9.14a.88.88,0,0,0-.86-.89Z"/><path d="M8.74,38.8a.64.64,0,0,1-.15.42.6.6,0,0,1-.48.18h-6a2.9,2.9,0,0,0,.79,2,2.51,2.51,0,0,0,1.88.71,4.54,4.54,0,0,0,1.35-.2,9.44,9.44,0,0,0,1.3-.54.61.61,0,0,1,.3-.08.48.48,0,0,1,.39.18.59.59,0,0,1,.15.4.52.52,0,0,1,0,.21.67.67,0,0,1-.1.21,2.74,2.74,0,0,1-.69.62,4,4,0,0,1-.89.41,5.5,5.5,0,0,1-1,.24,6.75,6.75,0,0,1-1,.07,4.8,4.8,0,0,1-1.8-.32,4.22,4.22,0,0,1-1.45-.92,4.12,4.12,0,0,1-1-1.5A5,5,0,0,1,0,39.05a4.44,4.44,0,0,1,.33-1.64A4.64,4.64,0,0,1,1.22,36,4.69,4.69,0,0,1,2.6,35a4.18,4.18,0,0,1,1.86-.4,4.71,4.71,0,0,1,1.88.35,3.86,3.86,0,0,1,1.32.92,3.79,3.79,0,0,1,.79,1.37A5.36,5.36,0,0,1,8.74,38.8ZM6.9,38.34a3.59,3.59,0,0,0-.2-.9,2.31,2.31,0,0,0-.48-.82,1.82,1.82,0,0,0-.74-.51,2.62,2.62,0,0,0-1-.18,2.35,2.35,0,0,0-.94.19,1.9,1.9,0,0,0-.72.54,2.71,2.71,0,0,0-.49.82,2.8,2.8,0,0,0-.22.86Z"/><path d="M15.77,42a4.68,4.68,0,0,1-.32.67,1.94,1.94,0,0,1-.38.46,1.42,1.42,0,0,1-.48.27,1.78,1.78,0,0,1-.59.09,1.8,1.8,0,0,1-.6-.09,1.43,1.43,0,0,1-.46-.27,2.22,2.22,0,0,1-.38-.46,4.68,4.68,0,0,1-.32-.67L9.78,35.9a.74.74,0,0,1-.07-.34.78.78,0,0,1,.09-.37A1,1,0,0,1,10,34.9a.88.88,0,0,1,.33-.18,1.21,1.21,0,0,1,.38-.06.93.93,0,0,1,.53.17,1.09,1.09,0,0,1,.38.53L14,41.48l2.25-6.11a1.07,1.07,0,0,1,.38-.54,1,1,0,0,1,.55-.17,1.15,1.15,0,0,1,.37.06.88.88,0,0,1,.33.18,1,1,0,0,1,.24.29.78.78,0,0,1,.09.37c0,.06,0,.11,0,.17a1.16,1.16,0,0,1,0,.18Z"/><path d="M27.93,38.8a.64.64,0,0,1-.15.42.6.6,0,0,1-.48.18h-6a3,3,0,0,0,.79,2A2.53,2.53,0,0,0,24,42.1a4.54,4.54,0,0,0,1.35-.2,9.44,9.44,0,0,0,1.3-.54.61.61,0,0,1,.3-.08.48.48,0,0,1,.39.18.59.59,0,0,1,.15.4.52.52,0,0,1,0,.21.67.67,0,0,1-.1.21,2.74,2.74,0,0,1-.69.62,3.8,3.8,0,0,1-.89.41,5.5,5.5,0,0,1-1,.24,6.65,6.65,0,0,1-1,.07A4.84,4.84,0,0,1,22,43.3a4.22,4.22,0,0,1-1.45-.92,4.12,4.12,0,0,1-1-1.5,5,5,0,0,1-.35-1.83,4.44,4.44,0,0,1,.33-1.64,4.67,4.67,0,0,1,.9-1.45,4.52,4.52,0,0,1,1.37-1,4.18,4.18,0,0,1,1.86-.4,4.67,4.67,0,0,1,1.88.35,3.86,3.86,0,0,1,1.32.92,3.79,3.79,0,0,1,.79,1.37A5.36,5.36,0,0,1,27.93,38.8Zm-1.84-.46a3.59,3.59,0,0,0-.2-.9,2.31,2.31,0,0,0-.48-.82,1.82,1.82,0,0,0-.74-.51,2.62,2.62,0,0,0-1-.18,2.35,2.35,0,0,0-.94.19,1.9,1.9,0,0,0-.72.54,2.71,2.71,0,0,0-.49.82,2.8,2.8,0,0,0-.22.86Z"/><path d="M29.9,35.63a1.08,1.08,0,0,1,.08-.42.83.83,0,0,1,.24-.31,1,1,0,0,1,.34-.18,1.21,1.21,0,0,1,.38-.06,1.26,1.26,0,0,1,.38.06.9.9,0,0,1,.32.17.89.89,0,0,1,.24.3,1,1,0,0,1,.1.41v.69a2.87,2.87,0,0,1,.46-.67,2.78,2.78,0,0,1,.7-.58,3.26,3.26,0,0,1,.86-.36,3.33,3.33,0,0,1,.94-.13,3.57,3.57,0,0,1,1.18.2,2.72,2.72,0,0,1,1,.6,2.94,2.94,0,0,1,.68,1.06A4.07,4.07,0,0,1,38,37.93v4.59A1,1,0,0,1,38,43a1,1,0,0,1-.57.5,1.07,1.07,0,0,1-.39.07,1,1,0,0,1-.38-.07.8.8,0,0,1-.32-.19.92.92,0,0,1-.24-.31,1,1,0,0,1-.09-.43v-4.6a2.36,2.36,0,0,0-.14-.88,1.75,1.75,0,0,0-.38-.62,1.57,1.57,0,0,0-.55-.37,2,2,0,0,0-.68-.12,2.49,2.49,0,0,0-.87.15,2.11,2.11,0,0,0-.72.46,2.42,2.42,0,0,0-.48.7,2.53,2.53,0,0,0-.17,1v4.26a1,1,0,0,1-.09.43,1,1,0,0,1-.57.5,1.07,1.07,0,0,1-.39.07,1,1,0,0,1-.38-.07A1,1,0,0,1,30,43a1.14,1.14,0,0,1-.08-.43Z"/><path d="M41.26,34.66l.16-2.38a.81.81,0,0,1,.12-.35,1,1,0,0,1,.23-.26,1.14,1.14,0,0,1,.31-.16,1,1,0,0,1,.33-.05.87.87,0,0,1,.57.19.72.72,0,0,1,.25.61v2.4h1.35a.67.67,0,0,1,.55.23.72.72,0,0,1,.19.49.74.74,0,0,1-.18.48.68.68,0,0,1-.56.22H43.23v3.69c0,.41,0,.77,0,1.06a2.46,2.46,0,0,0,.12.7.7.7,0,0,0,.29.39,1.07,1.07,0,0,0,.55.12h.2l.21,0,.2,0H45a.65.65,0,0,1,.53.22.76.76,0,0,1,.18.49.64.64,0,0,1-.17.46,1.29,1.29,0,0,1-.45.29,2.42,2.42,0,0,1-.63.14,5.37,5.37,0,0,1-.7,0,3.33,3.33,0,0,1-1.09-.16,1.83,1.83,0,0,1-.81-.52,2.54,2.54,0,0,1-.5-1,5.68,5.68,0,0,1-.17-1.48V36.08h-.86a.66.66,0,0,1-.55-.22.74.74,0,0,1-.18-.48.76.76,0,0,1,.18-.49.69.69,0,0,1,.56-.23Z"/><path d="M53.12,37.92A2.58,2.58,0,0,0,53,37a1.91,1.91,0,0,0-.38-.62,1.61,1.61,0,0,0-.56-.37,1.85,1.85,0,0,0-.67-.12,2.54,2.54,0,0,0-.88.15,2,2,0,0,0-.71.46,2.34,2.34,0,0,0-.48.71,2.57,2.57,0,0,0-.18,1v4.24A1,1,0,0,1,49,43a.9.9,0,0,1-.23.31.88.88,0,0,1-.34.19,1.07,1.07,0,0,1-.76,0,.78.78,0,0,1-.33-.19.92.92,0,0,1-.24-.31,1,1,0,0,1-.09-.43V31.78a1,1,0,0,1,.09-.43.89.89,0,0,1,.24-.3,1.19,1.19,0,0,1,.33-.19,1.32,1.32,0,0,1,.39-.06,1.26,1.26,0,0,1,.38.06,1.35,1.35,0,0,1,.33.19.86.86,0,0,1,.23.3,1,1,0,0,1,.09.43v4.53a3,3,0,0,1,.47-.68,2.85,2.85,0,0,1,.7-.59,3.26,3.26,0,0,1,.86-.36,3.33,3.33,0,0,1,.94-.13,3.61,3.61,0,0,1,1.18.2,2.8,2.8,0,0,1,1,.6,3.07,3.07,0,0,1,.68,1.06,4.07,4.07,0,0,1,.25,1.52v4.59a1,1,0,0,1-.09.43.9.9,0,0,1-.23.31.88.88,0,0,1-.34.19,1.07,1.07,0,0,1-.76,0,.92.92,0,0,1-.33-.19,1,1,0,0,1-.23-.31,1,1,0,0,1-.09-.43Z"/><path d="M65.76,42.53a1.14,1.14,0,0,1-.08.43.92.92,0,0,1-.24.31,1.21,1.21,0,0,1-.72.25,1.19,1.19,0,0,1-.37-.06.92.92,0,0,1-.32-.18,1,1,0,0,1-.24-.29,1,1,0,0,1-.1-.41v-.67a3.37,3.37,0,0,1-.48.67,3.55,3.55,0,0,1-.71.57,3.31,3.31,0,0,1-.85.35,3.63,3.63,0,0,1-.92.12,3.42,3.42,0,0,1-1.19-.2,2.61,2.61,0,0,1-1-.61,3,3,0,0,1-.68-1.05,4,4,0,0,1-.25-1.48V35.66a1.1,1.1,0,0,1,.08-.43,1,1,0,0,1,.24-.32,1.09,1.09,0,0,1,.33-.19,1.21,1.21,0,0,1,.38-.06,1.32,1.32,0,0,1,.39.06,1.09,1.09,0,0,1,.33.19,1,1,0,0,1,.24.32.94.94,0,0,1,.08.43v4.65a2.17,2.17,0,0,0,.15.84,1.67,1.67,0,0,0,.38.62,1.45,1.45,0,0,0,.55.37,1.93,1.93,0,0,0,.67.12,2.64,2.64,0,0,0,.84-.14,2.05,2.05,0,0,0,.7-.41,2.42,2.42,0,0,0,.49-.65,2.2,2.2,0,0,0,.22-.93V35.65a1,1,0,0,1,.09-.43.83.83,0,0,1,.24-.31.78.78,0,0,1,.33-.19,1.23,1.23,0,0,1,.76,0,.92.92,0,0,1,.33.19.83.83,0,0,1,.24.31,1.14,1.14,0,0,1,.08.43Z"/><path d="M70.13,42.62A1.12,1.12,0,0,1,70,43a.94.94,0,0,1-.24.28,1.09,1.09,0,0,1-.32.17,1,1,0,0,1-.35.06,1,1,0,0,1-.37-.07.92.92,0,0,1-.32-.18,1,1,0,0,1-.23-.31,1.14,1.14,0,0,1-.08-.43V31.78a1,1,0,0,1,.09-.43,1,1,0,0,1,.23-.3,1.35,1.35,0,0,1,.33-.19,1.31,1.31,0,0,1,.38-.06,1.27,1.27,0,0,1,.39.06,1.35,1.35,0,0,1,.33.19,1,1,0,0,1,.23.3.94.94,0,0,1,.09.43v4.39a4.61,4.61,0,0,1,.57-.64,4.24,4.24,0,0,1,.74-.54,4.4,4.4,0,0,1,.85-.33,4,4,0,0,1,.9-.11,3.39,3.39,0,0,1,1.59.36,3.3,3.3,0,0,1,1.16,1,4.35,4.35,0,0,1,.7,1.45A6.19,6.19,0,0,1,76.92,39a6.42,6.42,0,0,1-.22,1.66A4.74,4.74,0,0,1,76,42.19a3.34,3.34,0,0,1-1.14,1,3.15,3.15,0,0,1-1.59.39,3.58,3.58,0,0,1-1.77-.45,4.1,4.1,0,0,1-1.38-1.28v.73Zm0-3.65a6.49,6.49,0,0,0,.12,1.33,3.1,3.1,0,0,0,.4,1,2,2,0,0,0,.76.7,2.47,2.47,0,0,0,1.19.25A1.72,1.72,0,0,0,73.71,42a2.08,2.08,0,0,0,.65-.79,3.62,3.62,0,0,0,.33-1.07A7.14,7.14,0,0,0,74.78,39a6.1,6.1,0,0,0-.11-1.09,3.11,3.11,0,0,0-.37-1,2.13,2.13,0,0,0-.69-.71,2,2,0,0,0-1.08-.27,2.32,2.32,0,0,0-1.1.25,1.88,1.88,0,0,0-.73.67,3,3,0,0,0-.41.93A5.2,5.2,0,0,0,70.17,39Z"/></g></g></svg>