<svg xmlns="http://www.w3.org/2000/svg" xmlns:xlink="http://www.w3.org/1999/xlink" viewBox="0 0 111.27 25.64"><defs><style>.cls-1{fill:url(#linear-gradient);}.cls-2{fill:#fff;}</style><linearGradient id="linear-gradient" y1="12.82" x2="25.64" y2="12.82" gradientTransform="translate(-0.2 0.21) rotate(-0.92)" gradientUnits="userSpaceOnUse"><stop offset="0" stop-color="#ee4345"/><stop offset="0.04" stop-color="#ee4345"/><stop offset="0.17" stop-color="#ed435f"/><stop offset="0.4" stop-color="#eb4387"/><stop offset="0.52" stop-color="#ea4396"/><stop offset="0.62" stop-color="#ce4799"/><stop offset="0.85" stop-color="#974f9e"/><stop offset="0.96" stop-color="#8152a0"/><stop offset="1" stop-color="#8152a0"/></linearGradient></defs><g id="Layer_2" data-name="Layer 2"><g id="Layer_1-2" data-name="Layer 1"><rect class="cls-1" width="25.64" height="25.64" rx="12.82" transform="translate(0.21 -0.2) rotate(0.92)"/><path class="cls-2" d="M8,21a2.29,2.29,0,0,1-2.26-2.3l.1-11.85A2.29,2.29,0,0,1,8.15,4.58l9.48.06A2.28,2.28,0,0,1,19.88,7l0,1.7a2.29,2.29,0,0,1-2.3,2.27H16l0,3.86,1.59,0A2.3,2.3,0,0,1,19.8,17.1l0,1.69a2.27,2.27,0,0,1-2.27,2.27ZM17.63,5.53l-9.49,0A1.38,1.38,0,0,0,6.75,6.86L6.66,18.7A1.39,1.39,0,0,0,8,20.11l9.48.05a1.38,1.38,0,0,0,1.38-1.38V17.1a1.4,1.4,0,0,0-1.38-1.42H15.93v.87a1.76,1.76,0,0,1-1.77,1.76H12.88a1.77,1.77,0,0,1,0-3.54l2.13,0,0-3.87H12.94a1.78,1.78,0,0,1,0-3.55h1.27A1.77,1.77,0,0,1,16,9.14V10h1.6A1.4,1.4,0,0,0,19,8.64h0l0-1.7A1.38,1.38,0,0,0,17.63,5.53ZM12.9,15.64a.88.88,0,0,0,0,1.76h1.26a.89.89,0,0,0,.88-.87v-.88ZM13,8.24a.86.86,0,0,0-.87.87A.87.87,0,0,0,13,10l2.13,0V9.13a.87.87,0,0,0-.86-.88Z"/><path d="M43.09,14.17a.6.6,0,0,1-.16.42.58.58,0,0,1-.47.18h-6a2.9,2.9,0,0,0,.79,2,2.51,2.51,0,0,0,1.88.71,4.54,4.54,0,0,0,1.35-.2,9.44,9.44,0,0,0,1.3-.54.75.75,0,0,1,.3-.08.48.48,0,0,1,.39.18.58.58,0,0,1,.14.4.76.76,0,0,1,0,.21.58.58,0,0,1-.1.21,2.74,2.74,0,0,1-.69.62,4,4,0,0,1-.89.41,5.5,5.5,0,0,1-1,.24,6.78,6.78,0,0,1-1,.07,5,5,0,0,1-1.79-.31,4.11,4.11,0,0,1-2.41-2.42,4.89,4.89,0,0,1-.35-1.84,4.82,4.82,0,0,1,1.22-3.09,4.64,4.64,0,0,1,1.37-1,4.25,4.25,0,0,1,1.87-.39,4.71,4.71,0,0,1,1.88.34,3.86,3.86,0,0,1,1.32.92,3.75,3.75,0,0,1,.79,1.38A5.3,5.3,0,0,1,43.09,14.17Zm-1.84-.46a3.59,3.59,0,0,0-.2-.9,2.47,2.47,0,0,0-.48-.82,1.82,1.82,0,0,0-.74-.51,2.62,2.62,0,0,0-1-.17,2.35,2.35,0,0,0-.94.18,2.13,2.13,0,0,0-.72.54,2.71,2.71,0,0,0-.49.82,3.26,3.26,0,0,0-.23.86Z"/><path d="M50.11,17.4a4.71,4.71,0,0,1-.31.67,2,2,0,0,1-.38.46,1.52,1.52,0,0,1-.48.27,1.78,1.78,0,0,1-.59.09,1.8,1.8,0,0,1-.6-.09,1.43,1.43,0,0,1-.46-.27,1.76,1.76,0,0,1-.38-.46,6,6,0,0,1-.33-.67l-2.46-6.13a.9.9,0,0,1-.06-.34.78.78,0,0,1,.09-.37,1,1,0,0,1,.24-.29,1,1,0,0,1,.33-.18A1.21,1.21,0,0,1,45.1,10a.93.93,0,0,1,.53.17,1.09,1.09,0,0,1,.38.53l2.34,6.12,2.25-6.11A1.07,1.07,0,0,1,51,10.2a1,1,0,0,1,.55-.17,1.19,1.19,0,0,1,.37.06,1,1,0,0,1,.33.18,1,1,0,0,1,.24.29.78.78,0,0,1,.09.37,1,1,0,0,0,0,.17.61.61,0,0,1,0,.18Z"/><path d="M62.28,14.17a.64.64,0,0,1-.15.42.62.62,0,0,1-.48.18h-6a2.9,2.9,0,0,0,.79,2,2.51,2.51,0,0,0,1.88.71,4.54,4.54,0,0,0,1.35-.2,9.44,9.44,0,0,0,1.3-.54.75.75,0,0,1,.3-.08.48.48,0,0,1,.39.18.59.59,0,0,1,.15.4.78.78,0,0,1,0,.21.58.58,0,0,1-.1.21,2.74,2.74,0,0,1-.69.62,4,4,0,0,1-.89.41,5.5,5.5,0,0,1-1,.24,6.75,6.75,0,0,1-1,.07,5,5,0,0,1-1.8-.31,4.24,4.24,0,0,1-1.45-.93,4.16,4.16,0,0,1-1-1.49,5.09,5.09,0,0,1-.35-1.84,4.82,4.82,0,0,1,1.22-3.09,4.69,4.69,0,0,1,1.38-1A4.18,4.18,0,0,1,58,9.93a4.71,4.71,0,0,1,1.88.34,3.86,3.86,0,0,1,1.32.92A3.75,3.75,0,0,1,62,12.57,5.3,5.3,0,0,1,62.28,14.17Zm-1.84-.46a3.59,3.59,0,0,0-.2-.9,2.47,2.47,0,0,0-.48-.82,1.82,1.82,0,0,0-.74-.51,2.62,2.62,0,0,0-1-.17,2.35,2.35,0,0,0-.94.18,2.13,2.13,0,0,0-.72.54,2.71,2.71,0,0,0-.49.82,2.87,2.87,0,0,0-.22.86Z"/><path d="M64.24,11a1,1,0,0,1,.09-.42.92.92,0,0,1,.24-.31,1.12,1.12,0,0,1,.72-.24,1.26,1.26,0,0,1,.38.06,1,1,0,0,1,.32.18.85.85,0,0,1,.33.7v.69a3.29,3.29,0,0,1,.47-.67,2.78,2.78,0,0,1,.7-.58,3.26,3.26,0,0,1,.86-.36,3.73,3.73,0,0,1,.94-.12,3.6,3.6,0,0,1,1.18.19,2.69,2.69,0,0,1,1,.61,2.81,2.81,0,0,1,.68,1,4.14,4.14,0,0,1,.25,1.52v4.59a1.14,1.14,0,0,1-.08.43,1,1,0,0,1-.24.32,1.25,1.25,0,0,1-.34.19,1.23,1.23,0,0,1-.76,0,1.13,1.13,0,0,1-.32-.19,1,1,0,0,1-.33-.75v-4.6a2.36,2.36,0,0,0-.14-.88,1.75,1.75,0,0,0-.38-.62,1.52,1.52,0,0,0-.56-.37,2.09,2.09,0,0,0-.67-.11,2.49,2.49,0,0,0-.87.15,2,2,0,0,0-.72.45,2.47,2.47,0,0,0-.48.71,2.44,2.44,0,0,0-.18,1v4.26a1.14,1.14,0,0,1-.08.43,1,1,0,0,1-.24.32,1.35,1.35,0,0,1-.33.19,1.32,1.32,0,0,1-.39.06,1.21,1.21,0,0,1-.38-.06,1.35,1.35,0,0,1-.33-.19,1,1,0,0,1-.33-.75Z"/><path d="M75.6,10l.17-2.38a1,1,0,0,1,.11-.35A1,1,0,0,1,76.12,7a1.14,1.14,0,0,1,.31-.16,1.26,1.26,0,0,1,.33,0,.89.89,0,0,1,.57.19.72.72,0,0,1,.25.61V10h1.35a.67.67,0,0,1,.55.23.77.77,0,0,1,.19.49.68.68,0,0,1-.19.48.66.66,0,0,1-.55.23H77.58v3.68c0,.42,0,.77,0,1.06a2.15,2.15,0,0,0,.12.7.66.66,0,0,0,.29.39,1,1,0,0,0,.55.12h.2l.21,0,.2,0h.14a.62.62,0,0,1,.52.22.72.72,0,0,1,.19.49.68.68,0,0,1-.17.47,1.44,1.44,0,0,1-.45.28,2.42,2.42,0,0,1-.63.14,5.37,5.37,0,0,1-.7,0A3.64,3.64,0,0,1,77,18.84a1.94,1.94,0,0,1-.81-.53,2.54,2.54,0,0,1-.5-1,5.63,5.63,0,0,1-.17-1.48v-4.4h-.86a.66.66,0,0,1-.55-.23.72.72,0,0,1-.18-.48.76.76,0,0,1,.18-.49.69.69,0,0,1,.56-.23Z"/><path d="M87.47,13.29a2.58,2.58,0,0,0-.14-.88,1.91,1.91,0,0,0-.38-.62,1.61,1.61,0,0,0-.56-.37,2.14,2.14,0,0,0-.67-.11,2.54,2.54,0,0,0-.88.15,2,2,0,0,0-.71.45,2.47,2.47,0,0,0-.48.71,2.6,2.6,0,0,0-.18,1v4.24a1,1,0,0,1-.09.43.94.94,0,0,1-.23.32,1.25,1.25,0,0,1-.34.19,1.23,1.23,0,0,1-.76,0,1.25,1.25,0,0,1-.34-.19,1.09,1.09,0,0,1-.23-.32,1,1,0,0,1-.09-.43V7.15a.9.9,0,0,1,.66-.91,1.07,1.07,0,0,1,.39-.07,1,1,0,0,1,.38.07,1.06,1.06,0,0,1,.33.18.86.86,0,0,1,.23.3,1,1,0,0,1,.09.43v4.53a3,3,0,0,1,.47-.68,2.85,2.85,0,0,1,.7-.59,3.13,3.13,0,0,1,.86-.36,3.75,3.75,0,0,1,2.12.07,2.69,2.69,0,0,1,1,.61,2.94,2.94,0,0,1,.68,1,4.14,4.14,0,0,1,.25,1.52v4.59a1,1,0,0,1-.09.43,1.09,1.09,0,0,1-.23.32,1.1,1.1,0,0,1-.72.25,1.21,1.21,0,0,1-.38-.06,1.35,1.35,0,0,1-.33-.19,1.09,1.09,0,0,1-.23-.32,1,1,0,0,1-.09-.43Z"/><path d="M100.11,17.9a1,1,0,0,1-.09.43.79.79,0,0,1-.23.31,1.25,1.25,0,0,1-.34.19,1.21,1.21,0,0,1-.38.06,1.19,1.19,0,0,1-.37-.06,1.06,1.06,0,0,1-.33-.18,1,1,0,0,1-.23-.29A1,1,0,0,1,98,18v-.66a3.78,3.78,0,0,1-.48.66,3.55,3.55,0,0,1-.71.57,3.24,3.24,0,0,1-.86.35,3.56,3.56,0,0,1-.91.12,3.42,3.42,0,0,1-1.19-.2,2.61,2.61,0,0,1-1-.61,2.85,2.85,0,0,1-.68-1.05A4,4,0,0,1,92,15.65V11a1,1,0,0,1,.33-.75,1,1,0,0,1,.33-.19,1.23,1.23,0,0,1,.76,0,1,1,0,0,1,.34.19,1,1,0,0,1,.24.32A1.14,1.14,0,0,1,94,11v4.66a2.47,2.47,0,0,0,.14.84,2,2,0,0,0,.39.62,1.46,1.46,0,0,0,.55.36,1.89,1.89,0,0,0,.67.12,2.39,2.39,0,0,0,.84-.14,2.05,2.05,0,0,0,.7-.41,2.42,2.42,0,0,0,.49-.65A2.36,2.36,0,0,0,98,15.5V11a1,1,0,0,1,.09-.43.83.83,0,0,1,.24-.31.89.89,0,0,1,.33-.19,1.21,1.21,0,0,1,.38-.06,1.26,1.26,0,0,1,.38.06,1.09,1.09,0,0,1,.33.19.72.72,0,0,1,.23.31,1,1,0,0,1,.09.43Z"/><path d="M104.48,18a1.12,1.12,0,0,1-.12.39.83.83,0,0,1-.24.28.9.9,0,0,1-.32.17,1.07,1.07,0,0,1-.35.06,1.15,1.15,0,0,1-.37-.06,1.13,1.13,0,0,1-.32-.19.9.9,0,0,1-.23-.31,1.14,1.14,0,0,1-.08-.43V7.15a1,1,0,0,1,.09-.43.86.86,0,0,1,.23-.3,1.06,1.06,0,0,1,.33-.18,1,1,0,0,1,.38-.07,1,1,0,0,1,.38.07,1,1,0,0,1,.34.18,1,1,0,0,1,.23.3.94.94,0,0,1,.09.43v4.39a4.61,4.61,0,0,1,.57-.64,3.9,3.9,0,0,1,.74-.54,3.63,3.63,0,0,1,.85-.32,3.47,3.47,0,0,1,.9-.11,3.39,3.39,0,0,1,1.59.35,3.3,3.3,0,0,1,1.16,1,4.35,4.35,0,0,1,.7,1.45,6.19,6.19,0,0,1,.24,1.71,6.44,6.44,0,0,1-.23,1.66,4.66,4.66,0,0,1-.68,1.5,3.31,3.31,0,0,1-1.14,1,3.19,3.19,0,0,1-1.6.39,3.57,3.57,0,0,1-1.76-.45,4.1,4.1,0,0,1-1.38-1.28V18Zm0-3.65a6.49,6.49,0,0,0,.12,1.33,3,3,0,0,0,.4,1,2,2,0,0,0,.76.7,2.47,2.47,0,0,0,1.19.25,1.74,1.74,0,0,0,1.07-.31,2.1,2.1,0,0,0,.65-.79,3.62,3.62,0,0,0,.33-1.07,7.14,7.14,0,0,0,.09-1.08,6.1,6.1,0,0,0-.11-1.09,3.36,3.36,0,0,0-.37-1,2.13,2.13,0,0,0-.69-.71,2,2,0,0,0-1.08-.26,2.29,2.29,0,0,0-1.1.24,1.82,1.82,0,0,0-.73.67,3,3,0,0,0-.41.93A5.26,5.26,0,0,0,104.52,14.34Z"/></g></g></svg>